staticP12_grf.mot
version=1
nRows=12
nColumns=19
inDegrees=yes
endheader
time	1_ground_force_vx	1_ground_force_vy	1_ground_force_vz	1_ground_force_px	1_ground_force_py	1_ground_force_pz	1_ground_torque_x	1_ground_torque_y	1_ground_torque_z	2_ground_force_vx	2_ground_force_vy	2_ground_force_vz	2_ground_force_px	2_ground_force_py	2_ground_force_pz	2_ground_torque_x	2_ground_torque_y	2_ground_torque_z
            0.257000	            0.005139	            0.127690	           -0.005703	            0.300343	            0.002779	           -0.250042	           -0.033423	            0.009908	           -0.053921	           -0.014381	           -0.167914	            0.010909	            0.905879	            0.000867	           -0.251058	           -0.042102	            0.004767	           -0.055953
            0.258000	           -0.001480	            0.367854	           -0.066313	            0.300343	            0.002779	           -0.250042	            0.083389	           -0.010270	           -0.157779	           -0.022009	           -0.166694	            0.033960	            0.905879	            0.000867	           -0.251058	            0.092234	            0.000872	           -0.097919
            0.259000	           -0.011808	           -0.271433	           -0.037506	            0.300343	            0.002779	           -0.250042	           -0.016566	           -0.001520	            0.008475	            0.001169	           -0.088201	           -0.034999	            0.905879	            0.000867	           -0.251058	           -0.025187	            0.000281	            0.047931
            0.260000	            0.028116	            0.127762	            0.001883	            0.300343	            0.002779	           -0.250042	           -0.067035	           -0.001640	           -0.012572	            0.007235	           -0.568412	            0.001680	            0.905879	            0.000867	           -0.251058	           -0.058913	            0.000666	            0.089759
            0.261000	            0.027128	           -0.112407	            0.008876	            0.300343	            0.002779	           -0.250042	           -0.016499	            0.004064	            0.008437	           -0.014954	           -0.327693	            0.010481	            0.905879	            0.000867	           -0.251058	           -0.008589	            0.022931	           -0.014103
            0.262000	            0.012844	            0.127448	           -0.005771	            0.300343	            0.002779	           -0.250042	            0.066931	           -0.007275	           -0.053942	           -0.008114	           -0.566863	           -0.029102	            0.905879	            0.000867	           -0.251058	            0.041602	           -0.009684	           -0.035104
            0.263000	            0.012186	           -0.031199	           -0.006249	            0.300343	            0.002779	           -0.250042	           -0.000271	           -0.010978	           -0.054012	           -0.029672	           -0.167242	            0.018646	            0.905879	            0.000867	           -0.251058	           -0.008705	           -0.002693	           -0.139082
            0.264000	            0.017786	           -0.510812	           -0.015266	            0.300343	            0.002779	           -0.250042	           -0.033205	           -0.000057	           -0.053521	            0.016812	           -0.008046	           -0.019346	            0.905879	            0.000867	           -0.251058	           -0.042109	           -0.002484	           -0.055958
            0.265000	            0.027502	           -0.031078	            0.009110	            0.300343	            0.002779	           -0.250042	           -0.033662	            0.001341	           -0.136841	            0.024228	           -0.088152	            0.003548	            0.905879	            0.000867	           -0.251058	            0.008373	            0.008582	            0.047989
            0.266000	            0.019104	           -0.191237	           -0.021930	            0.300343	            0.002779	           -0.250042	            0.033503	            0.013599	           -0.053759	            0.015735	           -0.328614	            0.010273	            0.905879	            0.000867	           -0.251058	           -0.109326	            0.004840	           -0.014110
            0.267000	           -0.010184	            0.127961	            0.009544	            0.300343	            0.002779	           -0.250042	           -0.033614	           -0.002909	           -0.012590	            0.008904	           -0.088153	           -0.004092	            0.905879	            0.000867	           -0.251058	           -0.025188	            0.004405	            0.006311
            0.268000	           -0.018723	           -0.112380	           -0.014102	            0.300343	            0.002779	           -0.250042	            0.016873	           -0.012678	            0.091253	           -0.014411	           -0.167988	           -0.019844	            0.905879	            0.000867	           -0.251058	           -0.042020	            0.001364	           -0.014472
